<svg width="180" height="27" viewBox="0 0 180 27" fill="none" xmlns="http://www.w3.org/2000/svg">
<path d="M0 0.575998H18.252V6.912H6.552V10.08H16.272V16.092H6.552V19.296H18.252V25.632H0V0.575998Z" fill="black"/>
<path d="M34.9644 0.575998H36.3684L46.6644 25.632H45.2244L41.8404 17.352H29.4924L26.0724 25.632H24.6684L34.9644 0.575998ZM30.0324 16.056H41.3004L35.6484 2.304L30.0324 16.056Z" fill="black"/>
<path d="M62.8369 13.644C60.7969 13.236 59.1289 12.792 57.8329 12.312C56.5609 11.808 55.5529 11.136 54.8089 10.296C54.0889 9.432 53.7289 8.328 53.7289 6.984C53.7289 5.592 54.0889 4.368 54.8089 3.312C55.5529 2.256 56.5849 1.44 57.9049 0.863999C59.2489 0.288 60.7969 0 62.5489 0C64.2289 0 65.7649 0.359999 67.1569 1.08C68.5729 1.776 69.6889 2.76 70.5049 4.032C71.3209 5.304 71.7289 6.756 71.7289 8.388H70.3969C70.3969 6.972 70.0489 5.724 69.3529 4.644C68.6569 3.564 67.7089 2.736 66.5089 2.16C65.3089 1.56 63.9769 1.26 62.5129 1.26C61.2169 1.26 60.0049 1.464 58.8769 1.872C57.7489 2.28 56.8249 2.904 56.1049 3.744C55.4089 4.584 55.0609 5.64 55.0609 6.912C55.0609 8.064 55.3969 8.988 56.0689 9.684C56.7409 10.356 57.6169 10.872 58.6969 11.232C59.7769 11.592 61.2889 11.976 63.2329 12.384C65.2009 12.792 66.7249 13.188 67.8049 13.572C68.9089 13.932 69.8329 14.544 70.5769 15.408C71.3449 16.272 71.7289 17.484 71.7289 19.044C71.7289 20.604 71.3089 21.924 70.4689 23.004C69.6529 24.06 68.5609 24.852 67.1929 25.38C65.8249 25.908 64.3369 26.172 62.7289 26.172C60.7369 26.172 58.9849 25.8 57.4729 25.056C55.9609 24.312 54.7969 23.268 53.9809 21.924C53.1889 20.556 52.7929 18.996 52.7929 17.244H54.1249C54.1249 18.78 54.4609 20.124 55.1329 21.276C55.8289 22.428 56.8249 23.328 58.1209 23.976C59.4169 24.6 60.9529 24.912 62.7289 24.912C64.9369 24.912 66.7609 24.384 68.2009 23.328C69.6649 22.272 70.3969 20.832 70.3969 19.008C70.3969 17.76 70.0849 16.8 69.4609 16.128C68.8369 15.456 68.0449 14.976 67.0849 14.688C66.1489 14.376 64.7329 14.028 62.8369 13.644Z" fill="black"/>
<path d="M80.3053 0.575998H97.9453V1.908H81.6373V12.06H95.8213V13.392H81.6373V24.3H97.9453V25.632H80.3053V0.575998Z" fill="black"/>
<path d="M117.358 0.575998C118.942 0.575998 120.202 0.815998 121.138 1.296C122.266 1.872 123.13 2.664 123.73 3.672C124.354 4.68 124.666 5.808 124.666 7.056C124.666 8.232 124.354 9.324 123.73 10.332C123.106 11.316 122.254 12.096 121.174 12.672C122.47 13.128 123.562 13.92 124.45 15.048C125.338 16.176 125.782 17.448 125.782 18.864C125.782 20.112 125.458 21.264 124.81 22.32C124.186 23.352 123.346 24.168 122.29 24.768C121.762 25.056 121.174 25.272 120.526 25.416C119.878 25.56 119.014 25.632 117.934 25.632H106.846V0.575998H117.358Z" fill="black"/>
<path d="M142.242 0.0359993C144.114 0.0359993 145.842 0.503999 147.426 1.44C149.01 2.352 150.258 3.6 151.17 5.184C152.106 6.768 152.574 8.496 152.574 10.368V15.84C152.574 17.712 152.106 19.44 151.17 21.024C150.258 22.608 149.01 23.868 147.426 24.804C145.842 25.716 144.114 26.172 142.242 26.172C140.37 26.172 138.642 25.716 137.058 24.804C135.474 23.868 134.214 22.608 133.278 21.024C132.366 19.44 131.91 17.712 131.91 15.84V10.368C131.91 8.496 132.366 6.768 133.278 5.184C134.214 3.6 135.474 2.352 137.058 1.44C138.642 0.503999 140.37 0.0359993 142.242 0.0359993ZM133.242 15.84C133.242 17.472 133.638 18.984 134.43 20.376C135.246 21.744 136.338 22.836 137.706 23.652C139.098 24.444 140.61 24.84 142.242 24.84C143.874 24.84 145.374 24.444 146.742 23.652C148.134 22.836 149.226 21.744 150.018 20.376C150.834 18.984 151.242 17.472 151.242 15.84V10.368C151.242 8.736 150.834 7.236 150.018 5.868C149.226 4.476 148.134 3.384 146.742 2.592C145.374 1.776 143.874 1.368 142.242 1.368C140.61 1.368 139.098 1.776 137.706 2.592C136.338 3.384 135.246 4.476 134.43 5.868C133.638 7.236 133.242 8.736 133.242 10.368V15.84Z" fill="black"/>
<path d="M168.027 13.104L158.415 0.575998H160.143L168.891 11.988L177.675 0.575998H179.367L169.755 13.104L179.367 25.632H177.675L168.891 14.22L160.143 25.632H158.415L168.027 13.104Z" fill="black"/>
</svg>
