<svg width="92" height="86" viewBox="0 0 92 86" fill="none" xmlns="http://www.w3.org/2000/svg">
<path d="M24.0233 20.2V85M24.0233 20.2H91M24.0233 20.2L1 1M24.0233 85H91V20.2M24.0233 85L1 65.8V1M91 20.2L70.0698 1H1" stroke="#AC3571"/>
<path d="M17.9277 28.4277V31.293H9.64844V40.1172H17.9277L18.6484 36.5137H20.9863V43H2.79297V40.8379L5.85156 40.1172V20.6758L2.79297 19.9551V17.9863L9.64844 17.793H20.6172V23.9277H18.2793L17.3828 20.6758H9.64844V28.4277H17.9277ZM25.8555 25C26.043 24.9297 26.5117 24.7832 27.2617 24.5605C28.0234 24.3262 28.9199 24.1035 29.9512 23.8926C30.9824 23.6699 31.9551 23.5586 32.8691 23.5586C35.0488 23.5586 36.7012 23.9922 37.8262 24.8594C38.9629 25.7266 39.5312 27.1562 39.5312 29.1484V40.1172L42.4141 40.8379V42.8242L36.8242 43L36.0684 40.4863C35.2949 41.2598 34.3984 41.9336 33.3789 42.5078C32.3711 43.0703 31.2988 43.3516 30.1621 43.3516C28.4629 43.3516 27.1387 42.8828 26.1895 41.9453C25.2402 40.9961 24.7656 39.666 24.7656 37.9551C24.7656 35.9629 25.4805 34.5391 26.9102 33.6836C28.3398 32.8164 30.3848 32.3828 33.0449 32.3828H35.9277V29.5C35.9277 28.4453 35.6348 27.6426 35.0488 27.0918C34.4629 26.541 33.6133 26.2656 32.5 26.2656C31.8555 26.2656 31.2637 26.3066 30.7246 26.3887C30.1855 26.4707 29.7578 26.5527 29.4414 26.6348C29.1367 26.7168 28.9492 26.7695 28.8789 26.793L28.3691 29.5H26.0312L25.8555 25ZM33.4141 34.7207C31.6328 34.7207 30.3555 34.9609 29.582 35.4414C28.8203 35.9219 28.4395 36.7012 28.4395 37.7793C28.4395 38.5996 28.6738 39.2559 29.1426 39.748C29.6113 40.2402 30.2559 40.4863 31.0762 40.4863C31.873 40.4863 32.6289 40.2695 33.3438 39.8359C34.0586 39.4023 34.668 38.9336 35.1719 38.4297C35.6758 37.9258 35.9277 37.6504 35.9277 37.6035V34.7207H33.4141ZM48.0742 40.3281C48.0742 40.3516 48.373 40.416 48.9707 40.5215C49.5684 40.6152 50.2773 40.6621 51.0977 40.6621C53.8047 40.6621 55.1641 39.7129 55.1758 37.8145C55.1758 37.041 54.8418 36.4609 54.1738 36.0742C53.5176 35.6758 52.4922 35.2598 51.0977 34.8262C49.8203 34.416 48.7832 34.0234 47.9863 33.6484C47.2012 33.2617 46.5273 32.7109 45.9648 31.9961C45.4023 31.2695 45.1211 30.332 45.1211 29.1836C45.1211 27.3789 45.7305 25.9902 46.9492 25.0176C48.1797 24.0449 49.7676 23.5586 51.7129 23.5586C52.5566 23.5586 53.4297 23.6406 54.332 23.8047C55.2461 23.957 56.0195 24.1211 56.6523 24.2969C57.2969 24.4727 57.7012 24.5898 57.8652 24.6484L57.7598 29.5H55.4219L54.8418 26.6875C54.7715 26.6641 54.6133 26.6172 54.3672 26.5469C54.1328 26.4766 53.7988 26.4121 53.3652 26.3535C52.9316 26.2949 52.4512 26.2656 51.9238 26.2656C49.791 26.2656 48.7246 27.0684 48.7246 28.6738C48.7246 29.4473 49.0645 30.0449 49.7441 30.4668C50.4355 30.877 51.4727 31.3105 52.8555 31.7676C54.0977 32.2012 55.1172 32.6055 55.9141 32.9805C56.7109 33.3438 57.3848 33.877 57.9355 34.5801C58.4863 35.2715 58.7617 36.1445 58.7617 37.1992C58.7617 39.1914 58.0117 40.7148 56.5117 41.7695C55.0117 42.8242 53.125 43.3516 50.8516 43.3516C49.8672 43.3516 48.9531 43.293 48.1094 43.1758C47.2656 43.0586 46.5918 42.9414 46.0879 42.8242C45.584 42.707 45.2734 42.6191 45.1562 42.5605V37.2344H47.6875L48.0742 40.3281ZM65.5996 34C65.5996 35.9688 66.0801 37.5449 67.041 38.7285C68.002 39.9004 69.2617 40.4863 70.8203 40.4863C71.875 40.4863 72.8535 40.3398 73.7559 40.0469C74.6582 39.7539 75.4023 39.4375 75.9883 39.0977C76.5742 38.7461 76.8672 38.5469 76.8672 38.5L78.1328 40.3633C78.1328 40.4102 77.7402 40.7031 76.9551 41.2422C76.1816 41.7695 75.2207 42.2559 74.0723 42.7012C72.9355 43.1348 71.7285 43.3516 70.4512 43.3516C67.6152 43.3516 65.4648 42.4961 64 40.7852C62.5469 39.0742 61.8203 36.6953 61.8203 33.6484C61.8203 31.75 62.1895 30.0332 62.9277 28.498C63.6777 26.9629 64.7207 25.7559 66.0566 24.877C67.4043 23.998 68.9336 23.5586 70.6445 23.5586C75.6836 23.5586 78.2031 26.377 78.2031 32.0137C78.2031 32.4004 78.1797 32.7871 78.1328 33.1738C78.0859 33.5605 78.0508 33.8125 78.0273 33.9297L65.5996 34ZM74.3887 31.293C74.3887 29.8281 74.0723 28.6445 73.4395 27.7422C72.8184 26.8281 71.8223 26.3711 70.4512 26.3711C69.0566 26.3711 67.9492 26.8398 67.1289 27.7773C66.3203 28.7148 65.8574 29.8867 65.7402 31.293H74.3887ZM5.5 43.6758L2.44141 42.9551V40.9863L9.10352 40.793H13.2344C15.5898 40.793 17.4707 41.3262 18.877 42.3926C20.2832 43.4473 20.9863 45.0176 20.9863 47.1035C20.9863 50.1973 19.4219 52.1426 16.293 52.9395C18.1445 53.373 19.5391 54.0938 20.4766 55.1016C21.4141 56.0977 21.8828 57.3281 21.8828 58.793C21.8828 61.2656 21.1094 63.0879 19.5625 64.2598C18.0156 65.4199 15.7305 66 12.707 66H2.44141V63.8379L5.5 63.1172V43.6758ZM11.793 51.6035C13.4805 51.6035 14.8047 51.2637 15.7656 50.584C16.7266 49.8926 17.207 48.8496 17.207 47.4551C17.207 46.2363 16.8203 45.3047 16.0469 44.6602C15.2852 44.0039 14.2891 43.6758 13.0586 43.6758H9.10352V51.6035H11.793ZM12.8828 63.1172C14.582 63.1172 15.877 62.7656 16.7676 62.0625C17.6582 61.3477 18.1035 60.3223 18.1035 58.9863C18.1035 57.2637 17.5762 56.0508 16.5215 55.3477C15.4668 54.6445 13.8906 54.293 11.793 54.293H9.10352V63.1172H12.8828ZM34.293 46.5586C36.9531 46.5586 39.0273 47.4199 40.5156 49.1426C42.0039 50.8535 42.748 53.1738 42.748 56.1035C42.748 58.1191 42.373 59.9062 41.623 61.4648C40.8848 63.0234 39.8301 64.2305 38.459 65.0859C37.0996 65.9297 35.5293 66.3516 33.748 66.3516C31.0176 66.3516 28.8965 65.5312 27.3848 63.8906C25.873 62.25 25.1172 59.8359 25.1172 56.6484C25.1172 54.6328 25.5039 52.8633 26.2773 51.3398C27.0625 49.8047 28.1465 48.627 29.5293 47.8066C30.9121 46.9746 32.5 46.5586 34.293 46.5586ZM34.1172 49.4414C32.3359 49.4414 31.0176 50.0273 30.1621 51.1992C29.3184 52.3594 28.8965 54.1113 28.8965 56.4551C28.8965 61.1309 30.5781 63.4746 33.9414 63.4863C35.6992 63.4863 36.9766 62.8887 37.7734 61.6934C38.5703 60.4863 38.9688 58.6816 38.9688 56.2793C38.9688 51.7207 37.3516 49.4414 34.1172 49.4414ZM54.4727 53.9414L58.7793 47.1035L64 46.9277V49.0723L60.9414 49.6172L56.4414 56.2793L61.0469 63.1875L64.3691 64.0137V66H55.5801V64.0137L57.0215 63.5918L54.0684 58.8281L49.6035 66H44.3828V64.0137L47.5469 63.1875L52.1348 56.4551L47.5117 49.582L44.752 49.0723V47.1035L52.9609 46.9277V49.0723L51.6953 49.3008L54.4727 53.9414Z" fill="black"/>
</svg>
